<svg xmlns="http://www.w3.org/2000/svg" viewBox="0 0 1024 1024" width="1024" height="1024">
  <rect width="1024" height="1024" rx="180" ry="180" fill="#18181b" />
  <g transform="translate(292, 128) scale(18.333)"
     fill="none"
     stroke="#3b82f6"
     stroke-width="2.0"
     stroke-linecap="round"
     stroke-linejoin="round">
    <path d="M12.83 2.18a2 2 0 0 0-1.66 0L2.6 6.08a1 1 0 0 0 0 1.83l8.58 3.91a2 2 0 0 0 1.66 0l8.58-3.9a1 1 0 0 0 0-1.83Z" />
    <path d="m22 17.65-9.17 4.16a2 2 0 0 1-1.66 0L2 17.65" />
    <path d="m22 12.65-9.17 4.16a2 2 0 0 1-1.66 0L2 12.65" />
  </g>
  <text x="512"
        y="900"
        text-anchor="middle"
        fill="#fafafa"
        font-family="-apple-system, BlinkMacSystemFont, 'Segoe UI', Roboto, sans-serif"
        font-size="320"
        font-weight="800"
        letter-spacing="-12">MSI</text>
</svg>
